<?xml version="1.0" encoding="UTF-8"?>
<svg version="1.1" viewBox="0 0 1928 1344" width="482" height="336" xmlns="http://www.w3.org/2000/svg">
<path transform="translate(586,370)" d="m0 0h61l25 3 33 6 56 14 12 1 9-2 7-6 4-5 2-1h7l2 2 1 33 1 5 4 128v7l-1 1h-12l-4-2-12-23-10-18-13-22-16-24-9-12-11-14-23-23-18-13-19-10-16-5-19-3-21 2-16 4-12 5-10 6-13 12-9 9-9 14-8 16-6 14-6 18-6 26-4 25-4 34-1 13h458l-14-38-36-99-13-36-5-13v-3l-38-1-1-4v-10l2-2h263l1 1v13l-1 2h-55l12 36 24 71 13 37 12 36 4 9h123l3-11 4-15 1-2v-9l-18-57-15-48-14-45-1-1-45-1-1-1v-14l2-1h249l4 2-1 13-1 1h-46l20 63 20 64 13 42 7 20h108l3-8 11-46 11-42 20-79 4-14h-81l-1-8 1-8h160l3 1v12l-1 3-52 1-7 25-10 38-17 63-11 42-6 21h176l1 1v164l-1 1-219 1-3 8-15 57-13 48-11 42-13 49-2 2h-73l-6-16-12-35-11-36-13-38-14-43-12-38h-97l-7 23-18 63-19 66-12 42-4 11-1 1h-71l-6-13-17-47-21-57-22-61-10-28h-189l-1 195-3 1h-9l-8-7-8-6-10-4-5-1h-17l-29 6-42 11-33 7-26 4-19 1h-27l-33-2-34-6-30-8-20-8-16-7-22-13-16-12-20-18-9-10-13-17-11-18-12-24-7-18-7-25-5-21-139-1v-166l3-1h136l3-8 7-25 10-28 10-21 9-15 8-12 9-12 12-14 8-9 11-9 12-10 20-13 18-10 26-11 22-7 29-6 19-3zm-84 381 2 18 4 31 5 26 7 26 10 25 9 17 8 11 9 11 9 8 13 8 13 6 15 3h24l16-2 11-4 8-5 5-5 6-12 2-10 1-17v-135zm682 0-1 2 7 18 3 7 3-1 7-23v-2l-9-1zm301 0-1 3 4 13 2 6 3-1 6-19v-1z" fill="#E79AA1"/>
<path transform="translate(342,751)" d="m0 0h159l2 4 6 45 5 26 7 26 10 25 9 17 8 11 9 11 11 9 14 8 9 4 15 3h24l16-2 11-4 8-5 3-1 2-4 5-11 2-10 1-17 1-133 1-2h151v196l-3 1h-9l-8-7-8-6-10-4-5-1h-17l-29 6-42 11-33 7-26 4-19 1h-27l-33-2-34-6-30-8-20-8-16-7-22-13-16-12-20-18-9-10-13-17-11-18-12-24-7-18-7-25-4-15v-6z" fill="#010101"/>
<path transform="translate(586,370)" d="m0 0h61l25 3 33 6 56 14 12 1 9-2 7-6 4-5 2-1h7l2 2 1 33 1 5 4 128v7l-1 1h-12l-4-2-12-23-10-18-13-22-16-24-9-12-11-14-23-23-18-13-19-10-16-5-19-3-21 2-16 4-12 5-10 6-13 12-9 9-9 14-8 16-6 14-6 18-6 26-4 25-5 43-2 4h-157l-1-1 1-8 7-25 10-28 10-21 9-15 8-12 9-12 12-14 8-9 11-9 12-10 20-13 18-10 26-11 22-7 29-6 19-3z" fill="#020202"/>
<path transform="translate(855,379)" d="m0 0h263l1 1v13l-1 2h-55l12 36 24 71 13 37 12 36 2 9-1 1h-164l-5-10-19-53-15-41-20-55-9-25-1-5-38-1-1-4v-10z" fill="#010101"/>
<path transform="translate(1167,379)" d="m0 0h249l4 2-1 13-1 1h-46l20 63 20 64 13 42 6 17v4h-180l2-9 5-18 1-2v-9l-18-57-15-48-14-45-1-1-45-1-1-1v-14z" fill="#010101"/>
<path transform="translate(1022,751)" d="m0 0h161l5 12 5 14h2l7-23 2-3h24l-2 10-22 77-19 66-12 42-4 11-1 1h-71l-6-13-17-47-21-57-22-61-9-25z" fill="#010101"/>
<path transform="translate(1327,751)" d="m0 0h157l5 16 1 6 3-3 6-19h24l-4 17-26 97-11 42-13 49-2 2h-73l-6-16-12-35-11-36-13-38-14-43-11-34z" fill="#010101"/>
<path transform="translate(1508,379)" d="m0 0h160l3 1v12l-1 3-52 1-7 25-10 38-17 63-11 42-6 20-1 1h-24l1-9 11-46 11-42 20-79 4-14h-81l-1-8z" fill="#030203"/>
<path transform="translate(1364,626)" d="m0 0h42l13 4 9 6 7 8 4 10 2 8v13l-3 12-7 11-7 6-8 4-12 3-7 1h-33z" fill="#010101"/>
<path transform="translate(457,626)" d="m0 0h44l11 3 8 7 4 9 1 5v8l-4 11-7 8-6 3h-2l10 14 12 16v2h-16l-5-5-11-16-4-6-2-1h-19l-1 28h-13z" fill="#010101"/>
<path transform="translate(1011,625)" d="m0 0 13 1 9 24 7 20 6 16 4-10 13-42 3-7 1-1h11l4 10 14 45 2 5 5-12 16-45 2-3 13-1 1 2-7 19-10 30-12 33-2 3-9 1-4-2-9-29-8-26-1-4h-2l-2 10-15 47-2 3-8 1-5-2-15-43-14-40z" fill="#010101"/>
<path transform="translate(620,625)" d="m0 0 3 1 28 63 9 20v3h-13l-4-6-5-12-1-1h-44l-8 18-1 1h-14l1-5 6-12 11-25 16-36 3-7 2-1z" fill="#010101"/>
<path transform="translate(835,626)" d="m0 0h59v13l-45 1v21l40 1 1 1v11l-1 1-40 1-1 23h48v13h-62v-83z" fill="#010101"/>
<path transform="translate(1496,626)" d="m0 0h59l1 2-1 11h-45v23h41v13l-40 1-1 23h47l1 3-1 10h-61z" fill="#010101"/>
<path transform="translate(362,623)" d="m0 0h11l14 4 9 6v4l-5 7-5-2-7-3-5-1h-11l-10 3-9 6-5 9-2 9 1 13 4 9 9 8 8 3 10 1 11-2 7-2 1-25h13l1 9v17l-3 6-9 6-7 3-13 2-14-1-12-5-8-6-7-8-5-11-2-16 2-12 6-12 8-9 10-6 8-3z" fill="#010101"/>
<path transform="translate(1378,639)" d="m0 0h24l12 3 9 8 3 6 1 6v16l-4 9-5 5-4 3-15 4h-21l-1-1v-58z" fill="#E79AA1"/>
<path transform="translate(743,623)" d="m0 0h11l12 3 10 6 5 4 1 3-8 8-9-5-6-3-5-1h-11l-10 3-8 6-6 10-1 4v12l3 10 6 8 10 6 4 1h14l14-7 5-2 6 7-1 4-9 7-12 5-14 1-10-2-14-7-5-4-7-10-4-11-1-4v-13l3-11 4-8 9-10 10-6 8-3z" fill="#010101"/>
<path transform="translate(1263,625)" d="m0 0h8l1 1 1 72 38 1 1 4-1 8-1 1h-52v-85z" fill="#010101"/>
<path transform="translate(470,638)" d="m0 0h26l10 3 4 5 1 3v10l-4 7-7 3-4 1h-25l-1-1z" fill="#E79AA1"/>
<path transform="translate(1185,626)" d="m0 0h13v86h-13l-1-1v-30z" fill="#010101"/>
<path transform="translate(614,643)" d="m0 0 4 4 10 21 4 11h-33l3-9z" fill="#E79AA1"/>
</svg>
